# AST/ASF file generated using VICON BodyLanguage
# -----------------------------------------------
:version 1.10
:name VICON
:units
  mass 1.0
  length 0.45
  angle deg
:documentation
   .ast/.asf automatically generated from VICON data using
   VICON BodyBuilder and BodyLanguage model FoxedUp or BRILLIANT.MOD
:root
   order TX TY TZ RX RY RZ
   axis XYZ
   position 0 0 0  
   orientation 0 0 0 
:bonedata
  begin
     id 1 
     name lhipjoint
     direction 0.606768 -0.715223 0.346827 
     length 2.41543 
     axis 0 0 0  XYZ
  end
  begin
     id 2 
     name lfemur
     direction 0.34202 -0.939693 0  
     length 7.2778  
     axis 0 0 20  XYZ
    dof rx ry rz
    limits (-160.0 20.0)
           (-70.0 70.0)
           (-60.0 70.0)
  end
  begin
     id 3 
     name ltibia
     direction 0.34202 -0.939693 0   
     length 7.61811   
     axis 0 0 20   XYZ
    dof rx
    limits (-10.0 170.0)
  end
  begin
     id 4 
     name lfoot
     direction 0.0823924 -0.226371 0.97055   
     length 2.33618   
     axis -90 7.62852e-016 20   XYZ
    dof rx rz
    limits (-45.0 90.0)
           (-70.0 20.0)
  end
  begin
     id 5 
     name ltoes
     direction 1.53554e-011 -4.21934e-011 1   
     length 1.17015   
     axis -90 7.62852e-016 20   XYZ
    dof rx
    limits (-90.0 20.0)
  end
  begin
     id 6 
     name rhipjoint
     direction -0.6077 -0.714582 0.346516   
     length 2.4176  
     axis 0 0 0  XYZ 
  end
  begin
     id 7 
     name rfemur
     direction -0.34202 -0.939693 0   
     length 7.28127   
     axis 0 0 -20   XYZ
    dof rx ry rz
    limits (-160.0 20.0)
           (-70.0 70.0)
           (-70.0 60.0)
  end
  begin
     id 8 
     name rtibia
     direction -0.34202 -0.939693 0   
     length 7.77648   
     axis 0 0 -20   XYZ
    dof rx
    limits (-10.0 170.0)
 end
 begin
     id 9 
     name rfoot
     direction -0.0809463 -0.222398 0.97159   
     length 2.37533  
     axis -90 -7.62852e-016 -20   XYZ
    dof rx rz
    limits (-45.0 90.0)
           (-20.0 70.0)
  end
  begin
     id 10 
     name rtoes
     direction -1.53568e-011 -4.21714e-011 1   
     length 1.18972   
     axis -90 -7.62852e-016 -20   XYZ
    dof rx
    limits (-90.0 20.0)
  end
  begin
     id 11 
     name lowerback
     direction 0.010968 0.991932 -0.126297   
     length 2.21698   
     axis 0 0 0   XYZ
    dof rx ry rz
    limits (-20.0 45.0)
           (-30.0 30.0)
           (-30.0 30.0)
  end
  begin
     id 12 
     name upperback
     direction 0.0167007 0.997503 -0.0686276   
     length 2.22371   
     axis 0 0 0   XYZ
    dof rx ry rz
    limits (-20.0 45.0)
           (-30.0 30.0)
           (-30.0 30.0)
  end
  begin
     id 13 
     name thorax
     direction 0.0111721 0.999885 -0.0102878   
     length 2.25242   
     axis 0 0 0   XYZ
    dof rx ry rz
    limits (-20.0 45.0)
           (-30.0 30.0)
           (-30.0 30.0)
  end
  begin
     id 14 
     name lowerneck
     direction -0.0120265 0.990428 0.137508   
     length 1.57674   
     axis 0 0 0   XYZ
    dof rx ry rz
    limits (-20.0 45.0)
           (-30.0 30.0)
           (-30.0 30.0)
  end
  begin
     id 15 
     name upperneck
     direction 0.0175669 0.998907 0.0433089   
     length 1.5618   
     axis 0 0 0   XYZ
    dof rx ry rz
    limits (-20.0 45.0)
           (-30.0 30.0)
           (-30.0 30.0)
  end
  begin
     id 16
     name head
     direction 0.00754609 0.99997 0.00185367  
     length 1.60579  
     axis 0 0 0   XYZ
    dof rx ry rz
    limits (-20.0 45.0)
           (-30.0 30.0)
           (-30.0 30.0)
  end
  begin
     id 17 
     name lclavicle
     direction 0.885866 0.429166 -0.176231  
     length 3.44967  
     axis 0 0 0   XYZ
    dof ry rz
    limits (-20.0 10.0)
           (0.0 20.0)
  end
  begin
     id 18 
     name lhumerus
     direction 1 -4.48973e-011 -1.90255e-027   
     length 5.20607   
     axis 180 -30 -90   XYZ
    dof rx ry rz
    limits (-60.0 90.0)
           (-90.0 90.0)
           (-90.0 90.0)
  end
  begin
     id 19
     name lradius
     direction 1 -4.48956e-011 9.87925e-027   
     length 3.39961   
     axis 180 -30 -90   XYZ
    dof rx
    limits (-10.0 170.0)
  end
  begin
     id 20
     name lwrist
     direction 1 -4.48985e-011 1.73247e-026   
     length 1.6998   
     axis -9.60847e-015 90 90   XYZ
    dof ry
    limits (-180.0 0.0)
 end
  begin
     id 21 
     name lhand
     direction 1 -4.48798e-011 3.46119e-026   
     length 0.519693   
     axis -2.21073e-014 90 90   XYZ
    dof rx rz
    limits (-90.0 90.0)
           (-45.0 45.0)
  end
  begin
     id 22 
     name lfingers
     direction 1 -4.48938e-011 6.92797e-026   
     length 0.41899   
     axis -4.42155e-014 90 90   XYZ
    dof rx
    limits (0.0 90.0)
  end
  begin
     id 23
     name lthumb
     direction 0.707107 -6.34952e-011 0.707107   
     length 0.601588   
     axis -90 45 6.0103e-014   XYZ
    dof rx rz
    limits (-45.0 45.0)
           (-45.0 45.0)
  end
  begin
     id 24 
     name rclavicle
     direction -0.866736 0.456792 -0.200276   
     length 3.45032  
     axis 0 0 0   XYZ 
    dof ry rz
    limits (-10.0 20.0)
           (-20.0 0.0)
  end
  begin
     id 25 
     name rhumerus
     direction -1 -4.4897e-011 8.65094e-028  
     length 5.32214   
     axis 180 30 90   XYZ
    dof rx ry rz
    limits (-90.0 60.0)
           (-90.0 90.0)
           (-90.0 90.0)
  end
  begin
     id 26 
     name rradius
     direction -1 -4.48987e-011 1.08427e-026   
     length 3.51208   
     axis 180 30 90   XYZ
    dof rx
    limits (-10.0 170.0)
  end
  begin
     id 27 
     name rwrist
     direction -1 -4.48961e-011 1.73222e-026   
     length 1.75604   
     axis -9.60847e-015 -90 -90   XYZ
    dof ry
    limits (-180.0 0.0)
  end
  begin
     id 28
     name rhand
     direction -1 -4.48895e-011 3.46314e-026   
     length 0.586681   
     axis -2.21073e-014 -90 -90   XYZ
    dof rx rz
    limits (-90.0 90.0)
           (-45.0 45.0)
  end
  begin
     id 29
     name rfingers
     direction -1 -4.48968e-011 6.92916e-026   
     length 0.472997   
     axis -4.42155e-014 -90 -90   XYZ
    dof rx
    limits (0.0 90.0)
  end
  begin
     id 30
     name rthumb
     direction -0.707107 -6.34848e-011 0.707107   
     length 0.679133   
     axis -90 -45 -6.0103e-014   XYZ
    dof rx rz
    limits (-45.0 45.0)
           (-45.0 45.0)
  end
:hierarchy
  begin
    root lhipjoint rhipjoint lowerback
    lhipjoint lfemur
    lfemur ltibia
    ltibia lfoot
    lfoot ltoes
    rhipjoint rfemur
    rfemur rtibia
    rtibia rfoot
    rfoot rtoes
    lowerback upperback
    upperback thorax
    thorax lowerneck lclavicle rclavicle
    lowerneck upperneck
    upperneck head
    lclavicle lhumerus
    lhumerus lradius
    lradius lwrist
    lwrist lhand lthumb
    lhand lfingers
    rclavicle rhumerus
    rhumerus rradius
    rradius rwrist
    rwrist rhand rthumb
    rhand rfingers
  end

#!OML:ASF H:\Dans Jumps\Project 1\Capture day 1\Session 1\subject.ASF
:FULLY-SPECIFIED
:DEGREES
61
root 0.514777 17.5117 -14.2228 5.32952 -0.459756 -1.57311
lowerback -2.10724 -0.708447 -0.00967342
upperback 2.34826 -1.00845 1.91058
thorax 3.6325 -0.530281 1.92036
lowerneck -13.512 0.577484 -1.76581
upperneck 28.2259 1.27244 0.0210328
head 11.3905 0.385241 0.483973
rclavicle -6.4605e-016 -3.57812e-015
rhumerus -21.41 -11.9667 -82.4861
rradius 29.1056
rwrist 27.4077
rhand -18.7402 -27.0578
rfingers 7.12502
rthumb 7.55595 -56.9029
lclavicle -6.4605e-016 -3.57812e-015
lhumerus -19.9688 1.07955 86.6926
lradius 20.9331
lwrist 2.54915
lhand -25.2405 -2.96957
lfingers 7.12502
lthumb 1.27928 27.0063
rfemur -13.0293 -2.90658 20.3783
rtibia 23.0003
rfoot -14.0655 -3.45519
rtoes 10.6833
lfemur -12.7713 8.40821 -18.6099
ltibia 20.7445
lfoot -12.9792 4.73447
ltoes -4.22402
62
root 0.52092 17.5084 -14.2196 5.29958 -0.473572 -1.63241
lowerback -2.09016 -0.718191 0.065004
upperback 2.35134 -1.02501 1.93633
thorax 3.62576 -0.536917 1.9043
lowerneck -13.5222 0.584889 -1.77469
upperneck 28.2096 1.29265 -0.00407309
head 11.3863 0.390363 0.478991
rclavicle 0 7.55382e-015
rhumerus -21.3708 -11.9492 -82.4918
rradius 29.115
rwrist 27.3883
rhand -18.7487 -27.092
rfingers 7.12502
rthumb 7.54767 -56.9373
lclavicle 0 7.55382e-015
lhumerus -19.9385 1.13751 86.6638
lradius 20.9219
lwrist 2.53995
lhand -25.2599 -2.97218
lfingers 7.12502
lthumb 1.26054 27.0038
rfemur -12.9998 -2.89611 20.419
rtibia 23.0269
rfoot -14.086 -3.44774
rtoes 10.6821
lfemur -12.813 8.46845 -18.5643
ltibia 20.9011
lfoot -12.952 4.65471
ltoes -3.88812
63
root 0.527375 17.5052 -14.2161 5.26312 -0.494885 -1.68703
lowerback -2.07097 -0.722981 0.135971
upperback 2.35958 -1.03478 1.95981
thorax 3.62295 -0.540275 1.88837
lowerneck -13.5313 0.590325 -1.78098
upperneck 28.192 1.30907 -0.0282645
head 11.3815 0.394199 0.473375
rclavicle -1.54058e-015 9.54166e-015
rhumerus -21.3338 -11.9444 -82.4891
rradius 29.1156
rwrist 27.3792
rhand -18.7676 -27.128
rfingers 7.12502
rthumb 7.52946 -56.974
lclavicle -1.54058e-015 9.54166e-015
lhumerus -19.9048 1.18993 86.6459
lradius 20.903
lwrist 2.5251
lhand -25.2766 -2.97488
lfingers 7.12502
lthumb 1.24442 27.0012
rfemur -12.9613 -2.8812 20.4525
rtibia 23.0487
rfoot -14.1048 -3.43826
rtoes 10.6804
lfemur -12.8394 8.5005 -18.5263
ltibia 21.0449
lfoot -12.8971 4.56458
ltoes -3.425
64
root 0.534118 17.5024 -14.2125 5.22283 -0.522653 -1.73488
lowerback -2.0528 -0.723922 0.200857
upperback 2.37102 -1.03913 1.98038
thorax 3.6239 -0.541077 1.8731
lowerneck -13.5393 0.594605 -1.78293
upperneck 28.1761 1.32247 -0.0516668
head 11.3771 0.397227 0.4669
rclavicle 5.91384e-015 -1.11319e-014
rhumerus -21.2972 -11.9612 -82.4782
rradius 29.0987
rwrist 27.3905
rhand -18.794 -27.1616
rfingers 7.12502
rthumb 7.50398 -57.0085
lclavicle 5.91384e-015 -1.11319e-014
lhumerus -19.8714 1.2569 86.6346
lradius 20.8799
lwrist 2.48483
lhand -25.2948 -2.97997
lfingers 7.12502
lthumb 1.22681 26.9962
rfemur -12.9169 -2.8664 20.4774
rtibia 23.0681
rfoot -14.1219 -3.42675
rtoes 10.6644
lfemur -12.8508 8.5126 -18.4977
ltibia 21.1737
lfoot -12.8267 4.4777
ltoes -2.89479
65
root 0.541139 17.4998 -14.2085 5.18035 -0.559407 -1.77569
lowerback -2.0372 -0.720147 0.258604
upperback 2.38544 -1.0369 1.99795
thorax 3.62923 -0.538764 1.85906
lowerneck -13.5462 0.598003 -1.78112
upperneck 28.1619 1.33323 -0.0737258
head 11.3732 0.399626 0.459922
rclavicle -1.68967e-015 -1.59028e-015
rhumerus -21.2607 -11.9925 -82.4601
rradius 29.0659
rwrist 27.4162
rhand -18.8204 -27.1879
rfingers 7.12502
rthumb 7.47854 -57.0357
lclavicle -1.68967e-015 -1.59028e-015
lhumerus -19.8348 1.34582 86.6274
lradius 20.8495
lwrist 2.40833
lhand -25.3026 -2.99068
lfingers 7.12502
lthumb 1.21929 26.9856
rfemur -12.8702 -2.84995 20.4939
rtibia 23.0874
rfoot -14.1379 -3.41462
rtoes 10.6315
lfemur -12.8483 8.51874 -18.4787
ltibia 21.2867
lfoot -12.7492 4.40067
ltoes -2.36982
66
root 0.548289 17.4975 -14.2043 5.13796 -0.602515 -1.80875
lowerback -2.02138 -0.713822 0.305459
upperback 2.39784 -1.03075 2.01371
thorax 3.63242 -0.534743 1.84949
lowerneck -13.5511 0.601816 -1.77537
upperneck 28.1553 1.34324 -0.0946455
head 11.3718 0.402179 0.45261
rclavicle -1.39149e-015 -9.54166e-015
rhumerus -21.2312 -12.0278 -82.436
rradius 29.0192
rwrist 27.4498
rhand -18.845 -27.2126
rfingers 7.12502
rthumb 7.45473 -57.0612
lclavicle -1.39149e-015 -9.54166e-015
lhumerus -19.8025 1.45692 86.6234
lradius 20.8126
lwrist 2.30175
lhand -25.3015 -3.0033
lfingers 7.12502
lthumb 1.22034 26.973
rfemur -12.8239 -2.83194 20.5022
rtibia 23.1078
rfoot -14.1523 -3.4044
rtoes 10.587
lfemur -12.8355 8.53128 -18.4694
ltibia 21.3839
lfoot -12.6778 4.32643
ltoes -1.90339
67
root 0.555475 17.4955 -14.1999 5.09576 -0.650719 -1.8326
lowerback -2.00397 -0.705769 0.338264
upperback 2.40648 -1.0216 2.02783
thorax 3.63093 -0.529553 1.84629
lowerneck -13.5559 0.606818 -1.76523
upperneck 28.1607 1.35358 -0.1143
head 11.3751 0.405371 0.44511
rclavicle -1.43622e-014 2.26615e-014
rhumerus -21.2133 -12.0616 -82.4063
rradius 28.9642
rwrist 27.489
rhand -18.8549 -27.2442
rfingers 7.12502
rthumb 7.44516 -57.0932
lclavicle -1.43622e-014 2.26615e-014
lhumerus -19.7744 1.57071 86.6246
lradius 20.7667
lwrist 2.18454
lhand -25.2893 -3.01173
lfingers 7.12502
lthumb 1.23215 26.9645
rfemur -12.7784 -2.81149 20.5012
rtibia 23.131
rfoot -14.1668 -3.39621
rtoes 10.5506
lfemur -12.8123 8.55602 -18.4697
ltibia 21.4655
lfoot -12.6202 4.24702
ltoes -1.50039
68
root 0.562529 17.4938 -14.1953 5.05612 -0.703095 -1.84696
lowerback -1.98446 -0.696829 0.355089
upperback 2.40837 -1.01044 2.04061
thorax 3.62147 -0.523732 1.85082
lowerneck -13.5552 0.612211 -1.75692
upperneck 28.1774 1.36323 -0.12814
head 11.3815 0.408672 0.439986
rclavicle -1.49089e-016 -7.95139e-016
rhumerus -21.2075 -12.0923 -82.3718
rradius 28.899
rwrist 27.5333
rhand -18.8531 -27.2736
rfingers 7.12502
rthumb 7.4469 -57.1226
lclavicle -1.49089e-016 -7.95139e-016
lhumerus -19.7547 1.68239 86.6313
lradius 20.7115
lwrist 2.06508
lhand -25.2703 -3.01704
lfingers 7.12502
lthumb 1.25047 26.959
rfemur -12.7378 -2.78567 20.4915
rtibia 23.1586
rfoot -14.1812 -3.3948
rtoes 10.5111
lfemur -12.7825 8.59844 -18.4793
ltibia 21.531
lfoot -12.576 4.16122
ltoes -1.19915
69
root 0.569445 17.4923 -14.1903 5.01736 -0.760024 -1.85127
lowerback -1.9636 -0.686691 0.357836
upperback 2.40503 -0.996925 2.04999
thorax 3.60594 -0.517025 1.85989
lowerneck -13.549 0.617974 -1.74847
upperneck 28.2041 1.37168 -0.13629
head 11.3906 0.412056 0.436773
rclavicle -1.13307e-014 1.63003e-014
rhumerus -21.2102 -12.1353 -82.3327
rradius 28.815
rwrist 27.5968
rhand -18.8464 -27.2891
rfingers 7.12502
rthumb 7.4534 -57.1378
lclavicle -1.13307e-014 1.63003e-014
lhumerus -19.7469 1.77648 86.6435
lradius 20.6527
lwrist 1.96287
lhand -25.2451 -3.00714
lfingers 7.12502
lthumb 1.27488 26.9688
rfemur -12.7005 -2.75503 20.4719
rtibia 23.1921
rfoot -14.1975 -3.39799
rtoes 10.4755
lfemur -12.7434 8.65724 -18.4979
ltibia 21.5811
lfoot -12.5479 4.07256
ltoes -0.993634
70
root 0.576161 17.491 -14.1852 4.98022 -0.817547 -1.84526
lowerback -1.94482 -0.676389 0.347201
upperback 2.39964 -0.98255 2.05524
thorax 3.58957 -0.510176 1.87222
lowerneck -13.5432 0.622181 -1.74437
upperneck 28.2377 1.37634 -0.134958
head 11.4023 0.414365 0.437306
rclavicle 6.41081e-015 -1.27222e-014
rhumerus -21.214 -12.1983 -82.2906
rradius 28.7118
rwrist 27.6856
rhand -18.8395 -27.2881
rfingers 7.12502
rthumb 7.46006 -57.1365
lclavicle 6.41081e-015 -1.27222e-014
lhumerus -19.7484 1.8567 86.6601
lradius 20.5963
lwrist 1.88077
lhand -25.2173 -2.98866
lfingers 7.12502
lthumb 1.30171 26.9871
rfemur -12.6676 -2.72411 20.4423
rtibia 23.2325
rfoot -14.2169 -3.4051
rtoes 10.4376
lfemur -12.6967 8.72793 -18.5253
ltibia 21.6166
lfoot -12.5349 3.98098
ltoes -0.874497
71
root 0.582553 17.4899 -14.1799 4.94475 -0.87795 -1.8318
lowerback -1.93106 -0.664936 0.326397
upperback 2.39481 -0.966212 2.05573
thorax 3.57665 -0.502555 1.88539
lowerneck -13.5367 0.624973 -1.74284
upperneck 28.2737 1.37673 -0.123787
head 11.4147 0.415673 0.441322
rclavicle 1.34677e-014 -2.0276e-014
rhumerus -21.2149 -12.2886 -82.2479
rradius 28.5888
rwrist 27.8041
rhand -18.844 -27.2641
rfingers 7.12502
rthumb 7.45577 -57.1127
lclavicle 1.34677e-014 -2.0276e-014
lhumerus -19.7605 1.91952 86.6798
lradius 20.5496
lwrist 1.82711
lhand -25.1934 -2.97282
lfingers 7.12502
lthumb 1.32476 27.0028
rfemur -12.6399 -2.68696 20.4058
rtibia 23.28
rfoot -14.2405 -3.41798
rtoes 10.4022
lfemur -12.6445 8.80823 -18.5585
ltibia 21.6403
lfoot -12.5343 3.89393
ltoes -0.836271
72
root 0.588557 17.4888 -14.1744 4.91275 -0.939313 -1.81161
lowerback -1.92722 -0.653769 0.296674
upperback 2.39361 -0.950011 2.05127
thorax 3.57313 -0.495199 1.89834
lowerneck -13.5363 0.62721 -1.73972
upperneck 28.3108 1.37442 -0.107078
head 11.4287 0.416577 0.446771
rclavicle 1.68967e-015 -7.95139e-016
rhumerus -21.2092 -12.4049 -82.2085
rradius 28.4526
rwrist 27.9485
rhand -18.8566 -27.2256
rfingers 7.12502
rthumb 7.44358 -57.0747
lclavicle 1.68967e-015 -7.95139e-016
lhumerus -19.7821 1.97356 86.6995
lradius 20.5225
lwrist 1.79999
lhand -25.1731 -2.94775
lfingers 7.12502
lthumb 1.34439 27.0278
rfemur -12.6195 -2.64743 20.3633
rtibia 23.3346
rfoot -14.2676 -3.43468
rtoes 10.3545
lfemur -12.5906 8.8932 -18.5968
ltibia 21.6558
lfoot -12.5449 3.81454
ltoes -0.843321
73
root 0.594126 17.4877 -14.1689 4.88429 -0.998534 -1.78914
lowerback -1.93129 -0.644577 0.260924
upperback 2.39666 -0.936365 2.04455
thorax 3.57862 -0.489284 1.91212
lowerneck -13.5423 0.629036 -1.73681
upperneck 28.3463 1.37049 -0.0864034
head 11.4435 0.417215 0.453527
rclavicle -8.69683e-015 8.74653e-015
rhumerus -21.1962 -12.5377 -82.1728
rradius 28.3094
rwrist 28.1085
rhand -18.8733 -27.178
rfingers 7.12502
rthumb 7.42746 -57.0276
lclavicle -8.69683e-015 8.74653e-015
lhumerus -19.8121 2.02163 86.7194
lradius 20.5176
lwrist 1.79531
lhand -25.1536 -2.91942
lfingers 7.12502
lthumb 1.36323 27.056
rfemur -12.6065 -2.60591 20.3196
rtibia 23.3955
rfoot -14.2974 -3.45563
rtoes 10.3008
lfemur -12.5383 8.98095 -18.6356
ltibia 21.6668
lfoot -12.5653 3.74501
ltoes -0.887798
74
root 0.599263 17.4865 -14.1635 4.86029 -1.05183 -1.76488
lowerback -1.93893 -0.638636 0.219676
upperback 2.40014 -0.926869 2.03642
thorax 3.58676 -0.485575 1.92729
lowerneck -13.5485 0.630368 -1.73325
upperneck 28.3782 1.36524 -0.0645148
head 11.4568 0.417507 0.460424
rclavicle -1.21259e-014 -5.1684e-015
rhumerus -21.1809 -12.6825 -82.1404
rradius 28.1637
rwrist 28.2779
rhand -18.8842 -27.1368
rfingers 7.12502
rthumb 7.41696 -56.9868
lclavicle -1.21259e-014 -5.1684e-015
lhumerus -19.8539 2.05536 86.7411
lradius 20.5339
lwrist 1.81814
lhand -25.1395 -2.89316
lfingers 7.12502
lthumb 1.37683 27.0821
rfemur -12.6017 -2.5669 20.2753
rtibia 23.4623
rfoot -14.3296 -3.47827
rtoes 10.2444
lfemur -12.4909 9.07078 -18.6751
ltibia 21.6762
lfoot -12.5939 3.68222
ltoes -0.952718
